<svg width="30" height="31" viewBox="0 0 30 31" fill="none" xmlns="http://www.w3.org/2000/svg">
<path d="M13.7126 10.8313C13.4507 11.0113 13.2408 11.257 13.1038 11.5438C12.9876 11.7571 12.7932 11.9169 12.5615 11.9897C12.3297 12.0625 12.0788 12.0425 11.8615 11.934C11.6442 11.8254 11.4776 11.6367 11.3966 11.4077C11.3157 11.1787 11.3268 10.9272 11.4276 10.7062C11.6776 10.2037 12.0688 9.67375 12.6738 9.27125C13.2838 8.8625 14.0551 8.625 15.0001 8.625C15.8226 8.625 16.7113 8.86875 17.4176 9.39875C17.8113 9.68658 18.1306 10.0643 18.3489 10.5004C18.5672 10.9366 18.6782 11.4186 18.6726 11.9062C18.6726 13.1975 18.0313 14.0563 17.3888 14.675C17.1513 14.9038 16.8901 15.1225 16.6651 15.31L16.4813 15.4637C16.2885 15.6214 16.1068 15.7923 15.9376 15.975V17.6875C15.9376 17.9361 15.8388 18.1746 15.663 18.3504C15.4872 18.5262 15.2487 18.625 15.0001 18.625C14.7514 18.625 14.513 18.5262 14.3371 18.3504C14.1613 18.1746 14.0626 17.9361 14.0626 17.6875V15.8463C14.0626 15.55 14.1463 15.2163 14.3713 14.9263C14.6463 14.5763 14.9788 14.28 15.2688 14.0337L15.4976 13.8425L15.4988 13.8413C15.7138 13.6625 15.9038 13.5037 16.0863 13.3262C16.5463 12.8825 16.7976 12.4813 16.7976 11.9062C16.8031 11.7097 16.7599 11.5148 16.6717 11.339C16.5836 11.1632 16.4534 11.012 16.2926 10.8988C15.9576 10.6475 15.4801 10.5 15.0001 10.5C14.3826 10.5 13.9826 10.6513 13.7126 10.8313ZM16.2501 21.75C16.2501 22.0815 16.1184 22.3995 15.8839 22.6339C15.6495 22.8683 15.3316 23 15.0001 23C14.6685 23 14.3506 22.8683 14.1162 22.6339C13.8818 22.3995 13.7501 22.0815 13.7501 21.75C13.7501 21.4185 13.8818 21.1005 14.1162 20.8661C14.3506 20.6317 14.6685 20.5 15.0001 20.5C15.3316 20.5 15.6495 20.6317 15.8839 20.8661C16.1184 21.1005 16.2501 21.4185 16.2501 21.75Z" fill="black"/>
<path d="M15 1.75C22.5938 1.75 28.75 7.90625 28.75 15.5C28.75 23.0938 22.5938 29.25 15 29.25C7.40625 29.25 1.25 23.0938 1.25 15.5C1.25 7.90625 7.40625 1.75 15 1.75ZM3.125 15.5C3.125 18.6494 4.37611 21.6699 6.60311 23.8969C8.8301 26.1239 11.8506 27.375 15 27.375C18.1494 27.375 21.1699 26.1239 23.3969 23.8969C25.6239 21.6699 26.875 18.6494 26.875 15.5C26.875 12.3506 25.6239 9.3301 23.3969 7.10311C21.1699 4.87611 18.1494 3.625 15 3.625C11.8506 3.625 8.8301 4.87611 6.60311 7.10311C4.37611 9.3301 3.125 12.3506 3.125 15.5Z" fill="black"/>
</svg>
