<svg width="24" height="24" viewBox="0 0 24 24" fill="none" xmlns="http://www.w3.org/2000/svg">
<path d="M21 14.25V19.5C21 19.8978 20.842 20.2793 20.5607 20.5606C20.2794 20.8419 19.8978 21 19.5 21H4.5C4.10218 21 3.72064 20.8419 3.43934 20.5606C3.15804 20.2793 3 19.8978 3 19.5V14.25C3 14.0511 3.07902 13.8603 3.21967 13.7196C3.36032 13.579 3.55109 13.5 3.75 13.5C3.94891 13.5 4.13968 13.579 4.28033 13.7196C4.42098 13.8603 4.5 14.0511 4.5 14.25V19.5H19.5V14.25C19.5 14.0511 19.579 13.8603 19.7197 13.7196C19.8603 13.579 20.0511 13.5 20.25 13.5C20.4489 13.5 20.6397 13.579 20.7803 13.7196C20.921 13.8603 21 14.0511 21 14.25ZM8.78063 8.03061L11.25 5.56029V14.25C11.25 14.4489 11.329 14.6397 11.4697 14.7803C11.6103 14.921 11.8011 15 12 15C12.1989 15 12.3897 14.921 12.5303 14.7803C12.671 14.6397 12.75 14.4489 12.75 14.25V5.56029L15.2194 8.03061C15.3601 8.17134 15.551 8.2504 15.75 8.2504C15.949 8.2504 16.1399 8.17134 16.2806 8.03061C16.4214 7.88987 16.5004 7.699 16.5004 7.49998C16.5004 7.30096 16.4214 7.11009 16.2806 6.96935L12.5306 3.21935C12.461 3.14962 12.3783 3.0943 12.2872 3.05656C12.1962 3.01882 12.0986 2.99939 12 2.99939C11.9014 2.99939 11.8038 3.01882 11.7128 3.05656C11.6217 3.0943 11.539 3.14962 11.4694 3.21935L7.71937 6.96935C7.57864 7.11009 7.49958 7.30096 7.49958 7.49998C7.49958 7.699 7.57864 7.88987 7.71937 8.03061C7.86011 8.17134 8.05098 8.2504 8.25 8.2504C8.44902 8.2504 8.63989 8.17134 8.78063 8.03061Z" fill="#38467E"/>
</svg>
