<svg width="16" height="20" viewBox="0 0 16 20" fill="none" xmlns="http://www.w3.org/2000/svg">
<path d="M15.0428 17.4315C15.1105 17.5185 15.1643 17.6219 15.201 17.7356C15.2378 17.8494 15.2567 17.9714 15.2568 18.0945C15.257 18.2177 15.2382 18.3397 15.2017 18.4535C15.1652 18.5674 15.1117 18.6708 15.0441 18.758C14.9765 18.8451 14.8963 18.9143 14.8079 18.9615C14.7195 19.0088 14.6248 19.0331 14.5291 19.0332C14.4334 19.0333 14.3387 19.0091 14.2502 18.9621C14.1618 18.915 14.0814 18.846 14.0136 18.759L7.96711 10.99L1.93591 18.7709C1.79944 18.947 1.61421 19.046 1.42096 19.0461C1.22772 19.0463 1.04229 18.9477 0.905467 18.7719C0.768647 18.5962 0.691645 18.3577 0.6914 18.1089C0.691154 17.8601 0.767686 17.6215 0.904158 17.4454L6.93626 9.6657L0.88882 1.89788C0.752001 1.72211 0.674999 1.48361 0.674753 1.23484C0.674508 0.986079 0.751039 0.747427 0.887512 0.571389C1.02398 0.395351 1.20922 0.296347 1.40246 0.296156C1.59571 0.295966 1.78114 0.394604 1.91796 0.570373L7.96449 8.33937L13.9957 0.558458C14.1322 0.38242 14.3174 0.283416 14.5106 0.283225C14.7039 0.283034 14.8893 0.381673 15.0261 0.557441C15.163 0.73321 15.24 0.97171 15.2402 1.22047C15.2404 1.46924 15.1639 1.70789 15.0274 1.88393L8.99534 9.66367L15.0428 17.4315Z" fill="black"/>
</svg>
