<svg width="19" height="19" viewBox="0 0 19 19" fill="none" xmlns="http://www.w3.org/2000/svg">
<path d="M16.3414 6.24556L16.297 6.58089L16.5918 6.7468C17.568 7.29623 18.2025 8.34155 18.2025 9.50016C18.2025 10.6588 17.568 11.7041 16.5918 12.2535L16.297 12.4194L16.3414 12.7548C16.3597 12.8938 16.3691 13.0314 16.3691 13.1668C16.3691 15.0483 14.6681 16.5568 12.7912 16.3058L12.4551 16.2609L12.289 16.5564C11.7406 17.5322 10.6955 18.1668 9.53581 18.1668C8.37615 18.1668 7.33103 17.5322 6.7826 16.5564L6.61654 16.261L6.28059 16.3058C4.3994 16.5568 2.70267 15.0487 2.70247 13.1672C2.70268 13.0295 2.71192 12.8919 2.73016 12.7554L2.77501 12.4197L2.47981 12.2535C1.50366 11.7041 0.869141 10.6588 0.869141 9.50016C0.869141 8.34155 1.50366 7.29623 2.47981 6.7468L2.77457 6.58089L2.73025 6.24556C2.71187 6.10656 2.70247 5.96897 2.70247 5.8335C2.70247 3.95069 4.40005 2.43963 6.27957 2.69438L6.61617 2.74001L6.7826 2.44389C7.33103 1.46811 8.37615 0.833496 9.53581 0.833496C10.6955 0.833496 11.7406 1.46811 12.289 2.44389L12.4555 2.7401L12.7922 2.69436C14.6673 2.43967 16.3691 3.95099 16.3691 5.8335C16.3691 5.96897 16.3597 6.10656 16.3414 6.24556Z" fill="#105EA6" stroke="#105EA6"/>
</svg>
