<svg width="12" height="13" viewBox="0 0 12 13" fill="none" xmlns="http://www.w3.org/2000/svg">
<path d="M2.80039 0.5V4.5M9.20039 0.5V4.5M1.20039 2.5H10.8004C11.0126 2.5 11.216 2.58429 11.3661 2.73431C11.5161 2.88434 11.6004 3.08783 11.6004 3.3V11.3C11.6004 11.5122 11.5161 11.7157 11.3661 11.8657C11.216 12.0157 11.0126 12.1 10.8004 12.1H1.20039C0.988217 12.1 0.784734 12.0157 0.634705 11.8657C0.484676 11.7157 0.400391 11.5122 0.400391 11.3V3.3C0.400391 3.08783 0.484676 2.88434 0.634705 2.73431C0.784734 2.58429 0.988217 2.5 1.20039 2.5Z" stroke="#38467E" stroke-width="2"/>
</svg>
