<svg width="21" height="20" viewBox="0 0 21 20" fill="none" xmlns="http://www.w3.org/2000/svg">
<rect x="0.5" width="20" height="20" rx="10" fill="white"/>
<g clip-path="url(#clip0_895_29666)">
<path d="M7.30039 4V8M13.7004 4V8M8.50039 10.8L10.1004 12.4L12.9004 9.2M5.70039 6H15.3004C15.5126 6 15.716 6.08429 15.8661 6.23431C16.0161 6.38434 16.1004 6.58783 16.1004 6.8V14.8C16.1004 15.0122 16.0161 15.2157 15.8661 15.3657C15.716 15.5157 15.5126 15.6 15.3004 15.6H5.70039C5.48822 15.6 5.28473 15.5157 5.13471 15.3657C4.98468 15.2157 4.90039 15.0122 4.90039 14.8V6.8C4.90039 6.58783 4.98468 6.38434 5.13471 6.23431C5.28473 6.08429 5.48822 6 5.70039 6Z" stroke="#38467E" stroke-width="2"/>
</g>
<defs>
<clipPath id="clip0_895_29666">
<rect width="12" height="12" fill="white" transform="translate(4.5 4)"/>
</clipPath>
</defs>
</svg>
