<svg width="19" height="19" viewBox="0 0 19 19" fill="none" xmlns="http://www.w3.org/2000/svg">
<path d="M18.4753 17.1488C18.5624 17.2359 18.6315 17.3393 18.6786 17.4531C18.7257 17.5669 18.75 17.6889 18.75 17.812C18.75 17.9352 18.7257 18.0572 18.6786 18.171C18.6315 18.2848 18.5624 18.3882 18.4753 18.4753C18.3882 18.5624 18.2848 18.6315 18.171 18.6786C18.0572 18.7257 17.9352 18.75 17.812 18.75C17.6889 18.75 17.5669 18.7257 17.4531 18.6786C17.3393 18.6315 17.2359 18.5624 17.1488 18.4753L9.375 10.7003L1.60121 18.4753C1.42531 18.6512 1.18673 18.75 0.937969 18.75C0.689204 18.75 0.450628 18.6512 0.274725 18.4753C0.0988214 18.2994 4.90375e-09 18.0608 0 17.812C-4.90375e-09 17.5633 0.0988214 17.3247 0.274725 17.1488L8.04968 9.375L0.274725 1.60121C0.0988214 1.42531 0 1.18673 0 0.937969C0 0.689204 0.0988214 0.450628 0.274725 0.274725C0.450628 0.0988214 0.689204 0 0.937969 0C1.18673 0 1.42531 0.0988214 1.60121 0.274725L9.375 8.04968L17.1488 0.274725C17.3247 0.0988214 17.5633 -4.90375e-09 17.812 0C18.0608 4.90375e-09 18.2994 0.0988214 18.4753 0.274725C18.6512 0.450628 18.75 0.689204 18.75 0.937969C18.75 1.18673 18.6512 1.42531 18.4753 1.60121L10.7003 9.375L18.4753 17.1488Z" fill="black"/>
</svg>
