<svg width="17" height="19" viewBox="0 0 17 19" fill="none" xmlns="http://www.w3.org/2000/svg">
<path d="M16.2752 9.30452H15.0662V6.22572L12.0973 3.4195L9.29114 0.767047L9.12846 0.613281H1.66375C0.74684 0.613281 0 1.3192 0 2.18588V16.8146C0 17.6812 0.74684 18.3872 1.66375 18.3872H13.4062C14.3231 18.3872 15.0699 17.6812 15.0699 16.8146V14.0083H16.2789C16.5858 14.0083 16.8335 13.7742 16.8335 13.4841V9.82522C16.8335 9.53516 16.5858 9.30102 16.2789 9.30102L16.2752 9.30452ZM13.1732 5.91819H10.0084C9.70153 5.91819 9.45382 5.68404 9.45382 5.39399V2.40255L13.1732 5.91819ZM13.957 16.8146C13.957 17.1046 13.7093 17.3388 13.4025 17.3388H1.66375C1.35688 17.3388 1.10917 17.1046 1.10917 16.8146V2.18588C1.10917 1.89582 1.35688 1.66168 1.66375 1.66168H8.34465V5.39399C8.34465 6.26066 9.09149 6.96659 10.0084 6.96659H13.957V9.30452H6.42948C6.12261 9.30452 5.8749 9.53866 5.8749 9.82872V13.4876C5.8749 13.7777 6.12261 14.0118 6.42948 14.0118H13.9607V16.8181L13.957 16.8146Z" fill="#E2E8F0"/>
</svg>
