<svg width="21" height="20" viewBox="0 0 21 20" fill="none" xmlns="http://www.w3.org/2000/svg">
<g clip-path="url(#clip0_743_160519)">
<path d="M15.3149 8.00044C15.4939 8.00044 15.6709 8.03444 15.8359 8.09944V4.50044C15.8359 4.10261 15.6779 3.72108 15.3966 3.43978C15.1153 3.15847 14.7338 3.00044 14.3359 3.00044H11.3359V2.50044C11.3388 2.43402 11.3278 2.36774 11.3036 2.3058C11.2795 2.24385 11.2428 2.18759 11.1958 2.14059C11.1488 2.09358 11.0925 2.05685 11.0306 2.03273C10.9686 2.0086 10.9024 1.99761 10.8359 2.00044C10.5599 2.00044 10.3359 2.23044 10.3359 2.50044V3.00044H7.33594C6.93811 3.00044 6.55658 3.15847 6.27528 3.43978C5.99397 3.72108 5.83594 4.10261 5.83594 4.50044V8.50044C5.83594 8.89826 5.99397 9.27979 6.27528 9.5611C6.55658 9.8424 6.93811 10.0004 7.33594 10.0004H13.6299L13.9679 8.96144L13.9719 8.94944C14.0701 8.67155 14.2521 8.431 14.4929 8.26101C14.7336 8.09101 15.0202 7.99997 15.3149 8.00044ZM7.83594 6.50044C7.83594 6.23522 7.94129 5.98087 8.12883 5.79333C8.31637 5.60579 8.57072 5.50044 8.83594 5.50044C9.10115 5.50044 9.35551 5.60579 9.54304 5.79333C9.73058 5.98087 9.83594 6.23522 9.83594 6.50044C9.83594 6.76565 9.73058 7.02001 9.54304 7.20754C9.35551 7.39508 9.10115 7.50044 8.83594 7.50044C8.57072 7.50044 8.31637 7.39508 8.12883 7.20754C7.94129 7.02001 7.83594 6.76565 7.83594 6.50044ZM11.8359 6.50044C11.8359 6.23522 11.9413 5.98087 12.1288 5.79333C12.3164 5.60579 12.5707 5.50044 12.8359 5.50044C13.1012 5.50044 13.3555 5.60579 13.543 5.79333C13.7306 5.98087 13.8359 6.23522 13.8359 6.50044C13.8359 6.76565 13.7306 7.02001 13.543 7.20754C13.3555 7.39508 13.1012 7.50044 12.8359 7.50044C12.5707 7.50044 12.3164 7.39508 12.1288 7.20754C11.9413 7.02001 11.8359 6.76565 11.8359 6.50044ZM10.8359 18.0004C12.5789 18.0004 13.8779 17.7744 14.8409 17.3884C14.8538 17.236 14.8934 17.0871 14.9579 16.9484C14.7369 16.8876 14.5339 16.7742 14.366 16.6181C14.1982 16.4619 14.0705 16.2675 13.9939 16.0514L13.9899 16.0394L13.6389 14.9594L13.6039 14.8694C13.5437 14.7264 13.4564 14.5964 13.3469 14.4864L13.2829 14.4264C13.164 14.3234 13.0261 14.2446 12.8769 14.1944L11.7969 13.8444L11.7859 13.8394C11.5605 13.7599 11.3588 13.6249 11.1993 13.4469C11.0398 13.2689 10.9277 13.0535 10.8734 12.8208C10.8191 12.588 10.8243 12.3453 10.8886 12.115C10.9528 11.8848 11.074 11.6745 11.2409 11.5034H6.14494C5.66507 11.5037 5.20495 11.6945 4.86572 12.0339C4.5265 12.3733 4.33594 12.8336 4.33594 13.3134V14.0024H4.34094C4.37494 14.7824 4.58894 15.7594 5.46394 16.5574C6.41994 17.4304 8.06994 18.0004 10.8359 18.0004ZM16.0619 10.3534L15.7139 9.28344C15.6851 9.20048 15.6311 9.12858 15.5595 9.07769C15.4879 9.0268 15.4023 8.99946 15.3144 8.99946C15.2266 8.99946 15.141 9.0268 15.0694 9.07769C14.9978 9.12858 14.9438 9.20048 14.9149 9.28344L14.5669 10.3534C14.4607 10.6767 14.2811 10.9711 14.0423 11.2134C13.8034 11.4558 13.5117 11.6396 13.1899 11.7504L12.1189 12.0984C12.0363 12.1275 11.9648 12.1815 11.9142 12.253C11.8636 12.3244 11.8364 12.4099 11.8364 12.4974C11.8364 12.585 11.8636 12.6704 11.9142 12.7419C11.9648 12.8134 12.0363 12.8674 12.1189 12.8964L13.1899 13.2444C13.5163 13.3532 13.8127 13.5366 14.0556 13.7802C14.2985 14.0238 14.4812 14.3208 14.5889 14.6474L14.9369 15.7174C14.966 15.8 15.02 15.8716 15.0915 15.9222C15.163 15.9728 15.2484 16 15.3359 16C15.4235 16 15.5089 15.9728 15.5804 15.9222C15.6519 15.8716 15.7059 15.8 15.7349 15.7174L16.0839 14.6474C16.1922 14.3219 16.375 14.0261 16.6177 13.7835C16.8604 13.541 17.1563 13.3585 17.4819 13.2504L18.5539 12.9024C18.6361 12.8729 18.7071 12.8187 18.7573 12.7473C18.8075 12.6759 18.8345 12.5907 18.8345 12.5034C18.8345 12.4161 18.8075 12.331 18.7573 12.2596C18.7071 12.1881 18.6361 12.134 18.5539 12.1044L18.5319 12.0994L17.4599 11.7504C17.1344 11.6423 16.8385 11.4597 16.5958 11.2172C16.3531 10.9747 16.1703 10.6789 16.0619 10.3534ZM19.8529 16.9654L20.6189 17.2134L20.6339 17.2174C20.678 17.233 20.7179 17.2586 20.7505 17.2921C20.7831 17.3257 20.8075 17.3664 20.8217 17.4109C20.8359 17.4555 20.8397 17.5027 20.8326 17.549C20.8255 17.5952 20.8078 17.6392 20.7809 17.6774C20.7445 17.7285 20.6932 17.7669 20.6339 17.7874L19.8689 18.0354C19.6362 18.1126 19.4246 18.243 19.251 18.4163C19.0774 18.5895 18.9466 18.8008 18.8689 19.0334L18.6209 19.7984C18.6002 19.8575 18.5617 19.9087 18.5106 19.9449C18.4596 19.9811 18.3985 20.0005 18.3359 20.0005C18.2733 20.0005 18.2123 19.9811 18.1612 19.9449C18.1102 19.9087 18.0716 19.8575 18.0509 19.7984L17.8019 19.0344C17.7251 18.8011 17.5948 18.5889 17.4213 18.4149C17.2478 18.241 17.0361 18.11 16.8029 18.0324L16.0379 17.7834C15.9939 17.7678 15.9541 17.7421 15.9216 17.7085C15.8892 17.6749 15.8649 17.6342 15.8508 17.5897C15.8367 17.5451 15.833 17.4979 15.8402 17.4517C15.8473 17.4055 15.865 17.3616 15.8919 17.3234C15.9281 17.2726 15.9791 17.2342 16.0379 17.2134L16.8029 16.9654C17.0328 16.8862 17.2412 16.7549 17.4119 16.5818C17.5826 16.4086 17.7109 16.1984 17.7869 15.9674L18.0359 15.2024C18.0566 15.1434 18.0952 15.0922 18.1462 15.056C18.1973 15.0198 18.2583 15.0003 18.3209 15.0003C18.3835 15.0003 18.4446 15.0198 18.4956 15.056C18.5467 15.0922 18.5852 15.1434 18.6059 15.2024L18.8549 15.9664C18.9321 16.1991 19.0624 16.4106 19.2357 16.584C19.409 16.7575 19.6203 16.8881 19.8529 16.9654Z" fill="#38467E"/>
</g>
<defs>
<clipPath id="clip0_743_160519">
<rect width="20" height="20" fill="white" transform="translate(0.835938)"/>
</clipPath>
</defs>
</svg>
