<svg width="17" height="18" viewBox="0 0 17 18" fill="none" xmlns="http://www.w3.org/2000/svg">
<path d="M16.2752 8.80452H15.0662V5.72572L12.0973 2.9195L9.29114 0.267047L9.12846 0.113281H1.66375C0.74684 0.113281 0 0.819204 0 1.68588V16.3146C0 17.1812 0.74684 17.8872 1.66375 17.8872H13.4062C14.3231 17.8872 15.0699 17.1812 15.0699 16.3146V13.5083H16.2789C16.5858 13.5083 16.8335 13.2742 16.8335 12.9841V9.32522C16.8335 9.03516 16.5858 8.80102 16.2789 8.80102L16.2752 8.80452ZM13.1732 5.41819H10.0084C9.70153 5.41819 9.45382 5.18404 9.45382 4.89399V1.90255L13.1732 5.41819ZM13.957 16.3146C13.957 16.6046 13.7093 16.8388 13.4025 16.8388H1.66375C1.35688 16.8388 1.10917 16.6046 1.10917 16.3146V1.68588C1.10917 1.39582 1.35688 1.16168 1.66375 1.16168H8.34465V4.89399C8.34465 5.76066 9.09149 6.46659 10.0084 6.46659H13.957V8.80452H6.42948C6.12261 8.80452 5.8749 9.03866 5.8749 9.32872V12.9876C5.8749 13.2777 6.12261 13.5118 6.42948 13.5118H13.9607V16.3181L13.957 16.3146Z" fill="#38467E"/>
</svg>
