<svg width="19" height="13" viewBox="0 0 19 13" fill="none" xmlns="http://www.w3.org/2000/svg">
<path d="M18.1708 2.03645C17.9789 1.93156 17.7691 1.88039 17.5568 1.88039C17.3163 1.88039 17.0758 1.94947 16.8661 2.0825L14.8501 3.37698V3.19023C14.8501 1.71411 13.6478 0.511719 12.1716 0.511719H3.51445C2.03833 0.511719 0.835938 1.71411 0.835938 3.19023V9.81359C0.835938 11.2897 2.03833 12.4921 3.51445 12.4921H12.1716C13.6478 12.4921 14.8501 11.2897 14.8501 9.81359V9.62684L16.8661 10.9213C17.0758 11.0569 17.3163 11.1234 17.5568 11.1234C17.7666 11.1234 17.9789 11.0723 18.1708 10.9674C18.5801 10.7422 18.8359 10.3125 18.8359 9.84429V3.15697C18.8359 2.68881 18.5801 2.25902 18.1708 2.03389V2.03645ZM13.571 7.28858V9.81615C13.571 10.5887 12.9442 11.2155 12.1716 11.2155H3.51445C2.74185 11.2155 2.11507 10.5887 2.11507 9.81615V3.19023C2.11507 2.41763 2.74185 1.79085 3.51445 1.79085H12.1716C12.9442 1.79085 13.571 2.41763 13.571 3.19023V7.28602V7.28858ZM17.5568 6.50319V9.84685L14.9525 8.17374L14.8501 8.10723V4.8966L14.9525 4.83008L17.5568 3.15697V6.50063V6.50319Z" fill="#E2E8F0"/>
</svg>
