<svg width="17" height="15" viewBox="0 0 17 15" fill="none" xmlns="http://www.w3.org/2000/svg">
<path d="M14.8357 2.21518C14.1737 1.45986 13.366 0.829043 12.4602 0.366238C12.2079 0.237352 11.9996 0.367674 11.9996 0.651223C11.9996 0.966127 12.2185 1.35938 12.4866 1.5241C13.4469 2.11427 14.255 2.92866 14.8356 3.89179C15.4706 4.94781 15.8356 6.18401 15.8356 7.50034C15.8356 8.81666 15.4706 10.0528 14.8356 11.1088C14.1976 12.1673 13.2848 13.0461 12.1971 13.645C11.9704 13.7698 11.8631 14.0471 11.9659 14.2848C12.0823 14.5536 12.4018 14.6696 12.6512 14.5335C13.4797 14.0816 14.2205 13.4873 14.8356 12.7855C16.0805 11.3741 16.8355 9.52228 16.8355 7.50034C16.8355 5.4784 16.0805 3.62658 14.8356 2.21518H14.8357Z" fill="#E2E8F0"/>
<path d="M10.3359 7.50207C10.3359 6.84928 9.91715 6.29942 9.33591 6.09253V0.614502C9.33591 0.366788 9.04833 0.23038 8.85675 0.387241L3.83593 4.49916H1.39843C1.0878 4.49916 0.835938 4.75127 0.835938 5.0622V9.94194C0.835938 10.2529 1.0878 10.505 1.39843 10.505H3.83593L8.85675 14.617C9.04833 14.7738 9.33591 14.6374 9.33591 14.3897V8.91162C9.91715 8.70481 10.3359 8.15487 10.3359 7.50207Z" fill="#E2E8F0"/>
<path d="M12.8356 7.50051C12.8356 5.90385 11.8968 4.52338 10.5416 3.88224C10.3179 3.77643 10.0503 3.85748 9.9217 4.06902L9.90261 4.10038C9.7481 4.3546 9.84579 4.65742 10.1148 4.78428C11.131 5.26365 11.8355 6.30225 11.8355 7.50051C11.8355 8.69877 11.1376 9.72757 10.129 10.21C9.86378 10.3368 9.7519 10.6525 9.90456 10.9039L9.9217 10.932C10.0503 11.1435 10.3179 11.2247 10.5416 11.1188C11.8968 10.4776 12.8356 9.09717 12.8356 7.50051Z" fill="#E2E8F0"/>
<path d="M14.8354 7.50067C14.8354 5.19746 13.539 3.19707 11.6371 2.1872C11.3969 2.05966 11.0995 2.13277 10.9581 2.36518C10.8072 2.61315 10.8974 2.93516 11.1542 3.07004C12.7472 3.90657 13.8354 5.57938 13.8354 7.50067C13.8354 9.42195 12.7472 11.0948 11.1542 11.9313C10.8966 12.0666 10.8067 12.3902 10.9595 12.6384C11.1003 12.8673 11.404 12.9382 11.6411 12.812C13.5408 11.8015 14.8354 9.80227 14.8354 7.50067Z" fill="#E2E8F0"/>
</svg>
