<svg width="21" height="21" viewBox="0 0 21 21" fill="none" xmlns="http://www.w3.org/2000/svg">
<g clip-path="url(#clip0_743_160574)">
<path d="M15.3149 8.50044C15.4939 8.50044 15.6709 8.53444 15.8359 8.59944V5.00044C15.8359 4.60261 15.6779 4.22108 15.3966 3.93978C15.1153 3.65847 14.7338 3.50044 14.3359 3.50044H11.3359V3.00044C11.3388 2.93402 11.3278 2.86774 11.3036 2.8058C11.2795 2.74385 11.2428 2.68759 11.1958 2.64059C11.1488 2.59358 11.0925 2.55685 11.0306 2.53273C10.9686 2.5086 10.9024 2.49761 10.8359 2.50044C10.5599 2.50044 10.3359 2.73044 10.3359 3.00044V3.50044H7.33594C6.93811 3.50044 6.55658 3.65847 6.27528 3.93978C5.99397 4.22108 5.83594 4.60261 5.83594 5.00044V9.00044C5.83594 9.39826 5.99397 9.77979 6.27528 10.0611C6.55658 10.3424 6.93811 10.5004 7.33594 10.5004H13.6299L13.9679 9.46144L13.9719 9.44944C14.0701 9.17155 14.2521 8.931 14.4929 8.76101C14.7336 8.59101 15.0202 8.49997 15.3149 8.50044ZM7.83594 7.00044C7.83594 6.73522 7.94129 6.48087 8.12883 6.29333C8.31637 6.10579 8.57072 6.00044 8.83594 6.00044C9.10115 6.00044 9.35551 6.10579 9.54304 6.29333C9.73058 6.48087 9.83594 6.73522 9.83594 7.00044C9.83594 7.26565 9.73058 7.52001 9.54304 7.70754C9.35551 7.89508 9.10115 8.00044 8.83594 8.00044C8.57072 8.00044 8.31637 7.89508 8.12883 7.70754C7.94129 7.52001 7.83594 7.26565 7.83594 7.00044ZM11.8359 7.00044C11.8359 6.73522 11.9413 6.48087 12.1288 6.29333C12.3164 6.10579 12.5707 6.00044 12.8359 6.00044C13.1012 6.00044 13.3555 6.10579 13.543 6.29333C13.7306 6.48087 13.8359 6.73522 13.8359 7.00044C13.8359 7.26565 13.7306 7.52001 13.543 7.70754C13.3555 7.89508 13.1012 8.00044 12.8359 8.00044C12.5707 8.00044 12.3164 7.89508 12.1288 7.70754C11.9413 7.52001 11.8359 7.26565 11.8359 7.00044ZM10.8359 18.5004C12.5789 18.5004 13.8779 18.2744 14.8409 17.8884C14.8538 17.736 14.8934 17.5871 14.9579 17.4484C14.7369 17.3876 14.5339 17.2742 14.366 17.1181C14.1982 16.9619 14.0705 16.7675 13.9939 16.5514L13.9899 16.5394L13.6389 15.4594L13.6039 15.3694C13.5437 15.2264 13.4564 15.0964 13.3469 14.9864L13.2829 14.9264C13.164 14.8234 13.0261 14.7446 12.8769 14.6944L11.7969 14.3444L11.7859 14.3394C11.5605 14.2599 11.3588 14.1249 11.1993 13.9469C11.0398 13.7689 10.9277 13.5535 10.8734 13.3208C10.8191 13.088 10.8243 12.8453 10.8886 12.615C10.9528 12.3848 11.074 12.1745 11.2409 12.0034H6.14494C5.66507 12.0037 5.20495 12.1945 4.86572 12.5339C4.5265 12.8733 4.33594 13.3336 4.33594 13.8134V14.5024H4.34094C4.37494 15.2824 4.58894 16.2594 5.46394 17.0574C6.41994 17.9304 8.06994 18.5004 10.8359 18.5004ZM16.0619 10.8534L15.7139 9.78344C15.6851 9.70048 15.6311 9.62858 15.5595 9.57769C15.4879 9.5268 15.4023 9.49946 15.3144 9.49946C15.2266 9.49946 15.141 9.5268 15.0694 9.57769C14.9978 9.62858 14.9438 9.70048 14.9149 9.78344L14.5669 10.8534C14.4607 11.1767 14.2811 11.4711 14.0423 11.7134C13.8034 11.9558 13.5117 12.1396 13.1899 12.2504L12.1189 12.5984C12.0363 12.6275 11.9648 12.6815 11.9142 12.753C11.8636 12.8244 11.8364 12.9099 11.8364 12.9974C11.8364 13.085 11.8636 13.1704 11.9142 13.2419C11.9648 13.3134 12.0363 13.3674 12.1189 13.3964L13.1899 13.7444C13.5163 13.8532 13.8127 14.0366 14.0556 14.2802C14.2985 14.5238 14.4812 14.8208 14.5889 15.1474L14.9369 16.2174C14.966 16.3 15.02 16.3716 15.0915 16.4222C15.163 16.4728 15.2484 16.5 15.3359 16.5C15.4235 16.5 15.5089 16.4728 15.5804 16.4222C15.6519 16.3716 15.7059 16.3 15.7349 16.2174L16.0839 15.1474C16.1922 14.8219 16.375 14.5261 16.6177 14.2835C16.8604 14.041 17.1563 13.8585 17.4819 13.7504L18.5539 13.4024C18.6361 13.3729 18.7071 13.3187 18.7573 13.2473C18.8075 13.1759 18.8345 13.0907 18.8345 13.0034C18.8345 12.9161 18.8075 12.831 18.7573 12.7596C18.7071 12.6881 18.6361 12.634 18.5539 12.6044L18.5319 12.5994L17.4599 12.2504C17.1344 12.1423 16.8385 11.9597 16.5958 11.7172C16.3531 11.4747 16.1703 11.1789 16.0619 10.8534ZM19.8529 17.4654L20.6189 17.7134L20.6339 17.7174C20.678 17.733 20.7179 17.7586 20.7505 17.7921C20.7831 17.8257 20.8075 17.8664 20.8217 17.9109C20.8359 17.9555 20.8397 18.0027 20.8326 18.049C20.8255 18.0952 20.8078 18.1392 20.7809 18.1774C20.7445 18.2285 20.6932 18.2669 20.6339 18.2874L19.8689 18.5354C19.6362 18.6126 19.4246 18.743 19.251 18.9163C19.0774 19.0895 18.9466 19.3008 18.8689 19.5334L18.6209 20.2984C18.6002 20.3575 18.5617 20.4087 18.5106 20.4449C18.4596 20.4811 18.3985 20.5005 18.3359 20.5005C18.2733 20.5005 18.2123 20.4811 18.1612 20.4449C18.1102 20.4087 18.0716 20.3575 18.0509 20.2984L17.8019 19.5344C17.7251 19.3011 17.5948 19.0889 17.4213 18.9149C17.2478 18.741 17.0361 18.61 16.8029 18.5324L16.0379 18.2834C15.9939 18.2678 15.9541 18.2421 15.9216 18.2085C15.8892 18.1749 15.8649 18.1342 15.8508 18.0897C15.8367 18.0451 15.833 17.9979 15.8402 17.9517C15.8473 17.9055 15.865 17.8616 15.8919 17.8234C15.9281 17.7726 15.9791 17.7342 16.0379 17.7134L16.8029 17.4654C17.0328 17.3862 17.2412 17.2549 17.4119 17.0818C17.5826 16.9086 17.7109 16.6984 17.7869 16.4674L18.0359 15.7024C18.0566 15.6434 18.0952 15.5922 18.1462 15.556C18.1973 15.5198 18.2583 15.5003 18.3209 15.5003C18.3835 15.5003 18.4446 15.5198 18.4956 15.556C18.5467 15.5922 18.5852 15.6434 18.6059 15.7024L18.8549 16.4664C18.9321 16.6991 19.0624 16.9106 19.2357 17.084C19.409 17.2575 19.6203 17.3881 19.8529 17.4654Z" fill="#E2E8F0"/>
</g>
<defs>
<clipPath id="clip0_743_160574">
<rect width="20" height="20" fill="white" transform="translate(0.835938 0.5)"/>
</clipPath>
</defs>
</svg>
