<svg width="19" height="12" viewBox="0 0 19 12" fill="none" xmlns="http://www.w3.org/2000/svg">
<path d="M18.1708 1.53645C17.9789 1.43156 17.7691 1.38039 17.5568 1.38039C17.3163 1.38039 17.0758 1.44947 16.8661 1.5825L14.8501 2.87698V2.69023C14.8501 1.21411 13.6478 0.0117188 12.1716 0.0117188H3.51445C2.03833 0.0117188 0.835938 1.21411 0.835938 2.69023V9.31359C0.835938 10.7897 2.03833 11.9921 3.51445 11.9921H12.1716C13.6478 11.9921 14.8501 10.7897 14.8501 9.31359V9.12684L16.8661 10.4213C17.0758 10.5569 17.3163 10.6234 17.5568 10.6234C17.7666 10.6234 17.9789 10.5723 18.1708 10.4674C18.5801 10.2422 18.8359 9.81246 18.8359 9.34429V2.65697C18.8359 2.18881 18.5801 1.75902 18.1708 1.53389V1.53645ZM13.571 6.78858V9.31615C13.571 10.0887 12.9442 10.7155 12.1716 10.7155H3.51445C2.74185 10.7155 2.11507 10.0887 2.11507 9.31615V2.69023C2.11507 1.91763 2.74185 1.29085 3.51445 1.29085H12.1716C12.9442 1.29085 13.571 1.91763 13.571 2.69023V6.78602V6.78858ZM17.5568 6.00319V9.34685L14.9525 7.67374L14.8501 7.60723V4.3966L14.9525 4.33008L17.5568 2.65697V6.00063V6.00319Z" fill="#38467E"/>
</svg>
