<svg width="17" height="16" viewBox="0 0 17 16" fill="none" xmlns="http://www.w3.org/2000/svg">
<path d="M14.8357 2.71518C14.1737 1.95986 13.366 1.32904 12.4602 0.866238C12.2079 0.737352 11.9996 0.867674 11.9996 1.15122C11.9996 1.46613 12.2185 1.85938 12.4866 2.0241C13.4469 2.61427 14.255 3.42866 14.8356 4.39179C15.4706 5.44781 15.8356 6.68401 15.8356 8.00034C15.8356 9.31666 15.4706 10.5528 14.8356 11.6088C14.1976 12.6673 13.2848 13.5461 12.1971 14.145C11.9704 14.2698 11.8631 14.5471 11.9659 14.7848C12.0823 15.0536 12.4018 15.1696 12.6512 15.0335C13.4797 14.5816 14.2205 13.9873 14.8356 13.2855C16.0805 11.8741 16.8355 10.0223 16.8355 8.00034C16.8355 5.9784 16.0805 4.12658 14.8356 2.71518H14.8357Z" fill="#38467E"/>
<path d="M10.3359 8.00207C10.3359 7.34928 9.91715 6.79942 9.33591 6.59253V1.1145C9.33591 0.866788 9.04833 0.73038 8.85675 0.887241L3.83593 4.99916H1.39843C1.0878 4.99916 0.835938 5.25127 0.835938 5.5622V10.4419C0.835938 10.7529 1.0878 11.005 1.39843 11.005H3.83593L8.85675 15.117C9.04833 15.2738 9.33591 15.1374 9.33591 14.8897V9.41162C9.91715 9.20481 10.3359 8.65487 10.3359 8.00207Z" fill="#38467E"/>
<path d="M12.8356 8.00051C12.8356 6.40385 11.8968 5.02338 10.5416 4.38224C10.3179 4.27643 10.0503 4.35748 9.9217 4.56902L9.90261 4.60038C9.7481 4.8546 9.84579 5.15742 10.1148 5.28428C11.131 5.76365 11.8355 6.80225 11.8355 8.00051C11.8355 9.19877 11.1376 10.2276 10.129 10.71C9.86378 10.8368 9.7519 11.1525 9.90456 11.4039L9.9217 11.432C10.0503 11.6435 10.3179 11.7247 10.5416 11.6188C11.8968 10.9776 12.8356 9.59717 12.8356 8.00051Z" fill="#38467E"/>
<path d="M14.8354 8.00067C14.8354 5.69746 13.539 3.69707 11.6371 2.6872C11.3969 2.55966 11.0995 2.63277 10.9581 2.86518C10.8072 3.11315 10.8974 3.43516 11.1542 3.57004C12.7472 4.40657 13.8354 6.07938 13.8354 8.00067C13.8354 9.92195 12.7472 11.5948 11.1542 12.4313C10.8966 12.5666 10.8067 12.8902 10.9595 13.1384C11.1003 13.3673 11.404 13.4382 11.6411 13.312C13.5408 12.3015 14.8354 10.3023 14.8354 8.00067Z" fill="#38467E"/>
</svg>
