<svg width="12" height="8" viewBox="0 0 12 8" fill="none" xmlns="http://www.w3.org/2000/svg">
<path d="M5.49296 7.04321L0.402309 1.79321C0.355012 1.74444 0.317494 1.68653 0.291897 1.6228C0.2663 1.55907 0.253124 1.49076 0.253124 1.42178C0.253124 1.35279 0.2663 1.28449 0.291897 1.22076C0.317494 1.15702 0.355012 1.09912 0.402309 1.05034C0.449607 1.00156 0.505757 0.962868 0.567554 0.936469C0.629351 0.910071 0.695584 0.896484 0.762473 0.896484C0.829362 0.896484 0.895596 0.910071 0.957393 0.936469C1.01919 0.962868 1.07534 1.00156 1.12264 1.05034L5.85312 5.92956L10.5836 1.05034C10.6791 0.951827 10.8087 0.896484 10.9438 0.896484C11.0789 0.896484 11.2084 0.951827 11.3039 1.05034C11.3995 1.14885 11.4531 1.28246 11.4531 1.42178C11.4531 1.56109 11.3995 1.6947 11.3039 1.79321L6.21329 7.04321C6.16601 7.09203 6.10987 7.13075 6.04807 7.15717C5.98627 7.18359 5.92002 7.19719 5.85312 7.19719C5.78623 7.19719 5.71998 7.18359 5.65818 7.15717C5.59638 7.13075 5.54024 7.09203 5.49296 7.04321Z" fill="#7E7E7E"/>
</svg>
