<svg width="200" height="81" viewBox="0 0 200 81" fill="none" xmlns="http://www.w3.org/2000/svg">
<path d="M26.667 20.5013C26.667 16.9651 28.0717 13.5737 30.5722 11.0732C33.0727 8.57273 36.4641 7.16797 40.0003 7.16797C43.5365 7.16797 46.9279 8.57273 49.4284 11.0732C51.9289 13.5737 53.3337 16.9651 53.3337 20.5013V40.5013C53.3337 44.0375 51.9289 47.4289 49.4284 49.9294C46.9279 52.4299 43.5365 53.8346 40.0003 53.8346C36.4641 53.8346 33.0727 52.4299 30.5722 49.9294C28.0717 47.4289 26.667 44.0375 26.667 40.5013V20.5013ZM40.0003 11.3346C37.5692 11.3346 35.2376 12.3004 33.5185 14.0195C31.7994 15.7386 30.8337 18.0702 30.8337 20.5013V40.5013C30.8337 42.9325 31.7994 45.264 33.5185 46.9831C35.2376 48.7022 37.5692 49.668 40.0003 49.668C42.4315 49.668 44.7631 48.7022 46.4821 46.9831C48.2012 45.264 49.167 42.9325 49.167 40.5013V20.5013C49.167 18.0702 48.2012 15.7386 46.4821 14.0195C44.7631 12.3004 42.4315 11.3346 40.0003 11.3346ZM41.667 63.3596C53.7753 62.5046 63.3337 52.4096 63.3337 40.0846C63.3337 39.5321 63.1142 39.0022 62.7235 38.6115C62.3328 38.2208 61.8029 38.0013 61.2503 38.0013C60.6978 38.0013 60.1679 38.2208 59.7772 38.6115C59.3865 39.0022 59.167 39.5321 59.167 40.0846C59.167 50.6696 50.5853 59.2513 40.0003 59.2513C29.4153 59.2513 20.8337 50.6696 20.8337 40.0846C20.8337 39.5321 20.6142 39.0022 20.2235 38.6115C19.8328 38.2208 19.3029 38.0013 18.7503 38.0013C18.1978 38.0013 17.6679 38.2208 17.2772 38.6115C16.8865 39.0022 16.667 39.5321 16.667 40.0846C16.667 52.1263 25.7887 62.038 37.5003 63.2846V71.7513C37.5003 72.3038 37.7198 72.8337 38.1105 73.2244C38.5012 73.6152 39.0311 73.8346 39.5837 73.8346C40.1362 73.8346 40.6661 73.6152 41.0568 73.2244C41.4475 72.8337 41.667 72.3038 41.667 71.7513V63.3596Z" fill="black"/>
<path d="M86.667 48.832H106.667M86.667 48.832L92.5003 42.9987M86.667 48.832L92.5003 54.6654M91.667 32.1654H113.334M113.334 32.1654L107.5 26.332M113.334 32.1654L107.5 37.9987" stroke="black" stroke-width="3" stroke-linecap="round" stroke-linejoin="round"/>
<path d="M148 30.5C148 29.9696 148.211 29.4609 148.586 29.0858C148.961 28.7107 149.47 28.5 150 28.5H170C170.53 28.5 171.039 28.7107 171.414 29.0858C171.789 29.4609 172 29.9696 172 30.5C172 31.0304 171.789 31.5391 171.414 31.9142C171.039 32.2893 170.53 32.5 170 32.5H150C149.47 32.5 148.961 32.2893 148.586 31.9142C148.211 31.5391 148 31.0304 148 30.5ZM150 40.5C149.47 40.5 148.961 40.7107 148.586 41.0858C148.211 41.4609 148 41.9696 148 42.5C148 43.0304 148.211 43.5391 148.586 43.9142C148.961 44.2893 149.47 44.5 150 44.5H170C170.53 44.5 171.039 44.2893 171.414 43.9142C171.789 43.5391 172 43.0304 172 42.5C172 41.9696 171.789 41.4609 171.414 41.0858C171.039 40.7107 170.53 40.5 170 40.5H150ZM148 54.5C148 53.9696 148.211 53.4609 148.586 53.0858C148.961 52.7107 149.47 52.5 150 52.5H158C158.53 52.5 159.039 52.7107 159.414 53.0858C159.789 53.4609 160 53.9696 160 54.5C160 55.0304 159.789 55.5391 159.414 55.9142C159.039 56.2893 158.53 56.5 158 56.5H150C149.47 56.5 148.961 56.2893 148.586 55.9142C148.211 55.5391 148 55.0304 148 54.5ZM144 10.5C144 9.96957 144.211 9.46086 144.586 9.08579C144.961 8.71071 145.47 8.5 146 8.5C146.53 8.5 147.039 8.71071 147.414 9.08579C147.789 9.46086 148 9.96957 148 10.5V12.5H158V10.5C158 9.96957 158.211 9.46086 158.586 9.08579C158.961 8.71071 159.47 8.5 160 8.5C160.53 8.5 161.039 8.71071 161.414 9.08579C161.789 9.46086 162 9.96957 162 10.5V12.5H172V10.5C172 9.96957 172.211 9.46086 172.586 9.08579C172.961 8.71071 173.47 8.5 174 8.5C174.53 8.5 175.039 8.71071 175.414 9.08579C175.789 9.46086 176 9.96957 176 10.5V12.5H178C179.591 12.5 181.117 13.1321 182.243 14.2574C183.368 15.3826 184 16.9087 184 18.5V37.428C182.696 37.988 181.472 38.796 180.408 39.864L180 40.272V18.5C180 17.9696 179.789 17.4609 179.414 17.0858C179.039 16.7107 178.53 16.5 178 16.5H142C141.47 16.5 140.961 16.7107 140.586 17.0858C140.211 17.4609 140 17.9696 140 18.5V66.5C140 67.0304 140.211 67.5391 140.586 67.9142C140.961 68.2893 141.47 68.5 142 68.5H156.88L156.228 71.112C156.114 71.5672 156.042 72.0317 156.012 72.5H142C140.409 72.5 138.883 71.8679 137.757 70.7426C136.632 69.6174 136 68.0913 136 66.5V18.5C136 16.9087 136.632 15.3826 137.757 14.2574C138.883 13.1321 140.409 12.5 142 12.5H144V10.5ZM183.24 42.692L163.92 62.012C162.794 63.1375 161.995 64.5477 161.608 66.092L160.108 72.084C159.96 72.6799 159.969 73.304 160.133 73.8956C160.298 74.4872 160.613 75.0261 161.047 75.4601C161.481 75.8941 162.021 76.2084 162.612 76.3723C163.204 76.5363 163.828 76.5445 164.424 76.396L170.416 74.9C171.961 74.5137 173.371 73.7145 174.496 72.588L193.816 53.268C195.201 51.8613 195.973 49.9644 195.965 47.9906C195.957 46.0168 195.169 44.1262 193.773 42.7308C192.377 41.3354 190.486 40.5483 188.513 40.541C186.539 40.5338 184.642 41.3069 183.236 42.692H183.24Z" fill="black"/>
</svg>
