<svg width="310" height="81" viewBox="0 0 310 81" fill="none" xmlns="http://www.w3.org/2000/svg">
<path d="M51.3875 33.4187L36.3875 23.4187C36.0109 23.1675 35.5732 23.0232 35.121 23.0013C34.6688 22.9794 34.2192 23.0807 33.82 23.2944C33.4209 23.508 33.0873 23.8261 32.8548 24.2145C32.6223 24.603 32.4997 25.0473 32.5 25.5V45.5C32.4997 45.9527 32.6223 46.397 32.8548 46.7855C33.0873 47.1739 33.4209 47.492 33.82 47.7056C34.2192 47.9193 34.6688 48.0206 35.121 47.9987C35.5732 47.9768 36.0109 47.8325 36.3875 47.5813L51.3875 37.5813C51.7304 37.353 52.0116 37.0436 52.2061 36.6805C52.4007 36.3174 52.5024 35.9119 52.5024 35.5C52.5024 35.0881 52.4007 34.6826 52.2061 34.3195C52.0116 33.9564 51.7304 33.647 51.3875 33.4187ZM37.5 40.8281V30.1875L45.4938 35.5L37.5 40.8281ZM67.5 13H12.5C11.1739 13 9.90215 13.5268 8.96447 14.4645C8.02678 15.4021 7.5 16.6739 7.5 18V53C7.5 54.3261 8.02678 55.5979 8.96447 56.5355C9.90215 57.4732 11.1739 58 12.5 58H67.5C68.8261 58 70.0979 57.4732 71.0355 56.5355C71.9732 55.5979 72.5 54.3261 72.5 53V18C72.5 16.6739 71.9732 15.4021 71.0355 14.4645C70.0979 13.5268 68.8261 13 67.5 13ZM67.5 53H12.5V18H67.5V53ZM72.5 65.5C72.5 66.163 72.2366 66.7989 71.7678 67.2678C71.2989 67.7366 70.663 68 70 68H10C9.33696 68 8.70107 67.7366 8.23223 67.2678C7.76339 66.7989 7.5 66.163 7.5 65.5C7.5 64.837 7.76339 64.2011 8.23223 63.7322C8.70107 63.2634 9.33696 63 10 63H70C70.663 63 71.2989 63.2634 71.7678 63.7322C72.2366 64.2011 72.5 64.837 72.5 65.5Z" fill="black"/>
<path d="M89.5 40.3333H111.167M111.167 40.3333L105.333 34.5M111.167 40.3333L105.333 46.1667" stroke="black" stroke-width="3" stroke-linecap="round" stroke-linejoin="round"/>
<path d="M148 30.5C148 29.9696 148.211 29.4609 148.586 29.0858C148.961 28.7107 149.47 28.5 150 28.5H170C170.53 28.5 171.039 28.7107 171.414 29.0858C171.789 29.4609 172 29.9696 172 30.5C172 31.0304 171.789 31.5391 171.414 31.9142C171.039 32.2893 170.53 32.5 170 32.5H150C149.47 32.5 148.961 32.2893 148.586 31.9142C148.211 31.5391 148 31.0304 148 30.5ZM150 40.5C149.47 40.5 148.961 40.7107 148.586 41.0858C148.211 41.4609 148 41.9696 148 42.5C148 43.0304 148.211 43.5391 148.586 43.9142C148.961 44.2893 149.47 44.5 150 44.5H170C170.53 44.5 171.039 44.2893 171.414 43.9142C171.789 43.5391 172 43.0304 172 42.5C172 41.9696 171.789 41.4609 171.414 41.0858C171.039 40.7107 170.53 40.5 170 40.5H150ZM148 54.5C148 53.9696 148.211 53.4609 148.586 53.0858C148.961 52.7107 149.47 52.5 150 52.5H158C158.53 52.5 159.039 52.7107 159.414 53.0858C159.789 53.4609 160 53.9696 160 54.5C160 55.0304 159.789 55.5391 159.414 55.9142C159.039 56.2893 158.53 56.5 158 56.5H150C149.47 56.5 148.961 56.2893 148.586 55.9142C148.211 55.5391 148 55.0304 148 54.5ZM144 10.5C144 9.96957 144.211 9.46086 144.586 9.08579C144.961 8.71071 145.47 8.5 146 8.5C146.53 8.5 147.039 8.71071 147.414 9.08579C147.789 9.46086 148 9.96957 148 10.5V12.5H158V10.5C158 9.96957 158.211 9.46086 158.586 9.08579C158.961 8.71071 159.47 8.5 160 8.5C160.53 8.5 161.039 8.71071 161.414 9.08579C161.789 9.46086 162 9.96957 162 10.5V12.5H172V10.5C172 9.96957 172.211 9.46086 172.586 9.08579C172.961 8.71071 173.47 8.5 174 8.5C174.53 8.5 175.039 8.71071 175.414 9.08579C175.789 9.46086 176 9.96957 176 10.5V12.5H178C179.591 12.5 181.117 13.1321 182.243 14.2574C183.368 15.3826 184 16.9087 184 18.5V37.428C182.696 37.988 181.472 38.796 180.408 39.864L180 40.272V18.5C180 17.9696 179.789 17.4609 179.414 17.0858C179.039 16.7107 178.53 16.5 178 16.5H142C141.47 16.5 140.961 16.7107 140.586 17.0858C140.211 17.4609 140 17.9696 140 18.5V66.5C140 67.0304 140.211 67.5391 140.586 67.9142C140.961 68.2893 141.47 68.5 142 68.5H156.88L156.228 71.112C156.114 71.5672 156.042 72.0317 156.012 72.5H142C140.409 72.5 138.883 71.8679 137.757 70.7426C136.632 69.6174 136 68.0913 136 66.5V18.5C136 16.9087 136.632 15.3826 137.757 14.2574C138.883 13.1321 140.409 12.5 142 12.5H144V10.5ZM183.24 42.692L163.92 62.012C162.794 63.1375 161.995 64.5477 161.608 66.092L160.108 72.084C159.96 72.6799 159.969 73.304 160.133 73.8956C160.298 74.4872 160.613 75.0261 161.047 75.4601C161.481 75.8941 162.021 76.2084 162.612 76.3723C163.204 76.5363 163.828 76.5445 164.424 76.396L170.416 74.9C171.961 74.5137 173.371 73.7145 174.496 72.588L193.816 53.268C195.201 51.8613 195.973 49.9644 195.965 47.9906C195.957 46.0168 195.169 44.1262 193.773 42.7308C192.377 41.3354 190.486 40.5483 188.513 40.541C186.539 40.5338 184.642 41.3069 183.236 42.692H183.24Z" fill="black"/>
<path d="M209.5 40.3333H231.167M231.167 40.3333L225.333 34.5M231.167 40.3333L225.333 46.1667" stroke="black" stroke-width="3" stroke-linecap="round" stroke-linejoin="round"/>
<path d="M263.333 22.9987C263.333 19.9045 264.562 16.937 266.75 14.7491C268.938 12.5612 271.905 11.332 275 11.332C278.094 11.332 281.061 12.5612 283.249 14.7491C285.437 16.937 286.666 19.9045 286.666 22.9987V40.4987C286.666 43.5929 285.437 46.5604 283.249 48.7483C281.061 50.9362 278.094 52.1654 275 52.1654C271.905 52.1654 268.938 50.9362 266.75 48.7483C264.562 46.5604 263.333 43.5929 263.333 40.4987V22.9987ZM275 14.9779C272.872 14.9779 270.832 15.8229 269.328 17.3271C267.824 18.8313 266.979 20.8714 266.979 22.9987V40.4987C266.979 42.626 267.824 44.6661 269.328 46.1703C270.832 47.6745 272.872 48.5195 275 48.5195C277.127 48.5195 279.167 47.6745 280.671 46.1703C282.175 44.6661 283.021 42.626 283.021 40.4987V22.9987C283.021 20.8714 282.175 18.8313 280.671 17.3271C279.167 15.8229 277.127 14.9779 275 14.9779ZM276.458 60.4997C287.053 59.7516 295.416 50.9185 295.416 40.1341C295.416 39.6506 295.224 39.187 294.882 38.8451C294.541 38.5033 294.077 38.3112 293.593 38.3112C293.11 38.3112 292.646 38.5033 292.304 38.8451C291.963 39.187 291.771 39.6506 291.771 40.1341C291.771 49.396 284.262 56.9049 275 56.9049C265.738 56.9049 258.229 49.396 258.229 40.1341C258.229 39.6506 258.037 39.187 257.695 38.8451C257.353 38.5033 256.889 38.3112 256.406 38.3112C255.922 38.3112 255.459 38.5033 255.117 38.8451C254.775 39.187 254.583 39.6506 254.583 40.1341C254.583 50.6706 262.564 59.3433 272.812 60.4341V67.8424C272.812 68.3259 273.004 68.7896 273.346 69.1314C273.688 69.4733 274.152 69.6654 274.635 69.6654C275.119 69.6654 275.582 69.4733 275.924 69.1314C276.266 68.7896 276.458 68.3259 276.458 67.8424V60.4997Z" fill="black"/>
</svg>
