<svg width="200" height="81" viewBox="0 0 200 81" fill="none" xmlns="http://www.w3.org/2000/svg">
<path d="M28 30.5C28 29.9696 28.2107 29.4609 28.5858 29.0858C28.9609 28.7107 29.4696 28.5 30 28.5H50C50.5304 28.5 51.0391 28.7107 51.4142 29.0858C51.7893 29.4609 52 29.9696 52 30.5C52 31.0304 51.7893 31.5391 51.4142 31.9142C51.0391 32.2893 50.5304 32.5 50 32.5H30C29.4696 32.5 28.9609 32.2893 28.5858 31.9142C28.2107 31.5391 28 31.0304 28 30.5ZM30 40.5C29.4696 40.5 28.9609 40.7107 28.5858 41.0858C28.2107 41.4609 28 41.9696 28 42.5C28 43.0304 28.2107 43.5391 28.5858 43.9142C28.9609 44.2893 29.4696 44.5 30 44.5H50C50.5304 44.5 51.0391 44.2893 51.4142 43.9142C51.7893 43.5391 52 43.0304 52 42.5C52 41.9696 51.7893 41.4609 51.4142 41.0858C51.0391 40.7107 50.5304 40.5 50 40.5H30ZM28 54.5C28 53.9696 28.2107 53.4609 28.5858 53.0858C28.9609 52.7107 29.4696 52.5 30 52.5H38C38.5304 52.5 39.0391 52.7107 39.4142 53.0858C39.7893 53.4609 40 53.9696 40 54.5C40 55.0304 39.7893 55.5391 39.4142 55.9142C39.0391 56.2893 38.5304 56.5 38 56.5H30C29.4696 56.5 28.9609 56.2893 28.5858 55.9142C28.2107 55.5391 28 55.0304 28 54.5ZM24 10.5C24 9.96957 24.2107 9.46086 24.5858 9.08579C24.9609 8.71071 25.4696 8.5 26 8.5C26.5304 8.5 27.0391 8.71071 27.4142 9.08579C27.7893 9.46086 28 9.96957 28 10.5V12.5H38V10.5C38 9.96957 38.2107 9.46086 38.5858 9.08579C38.9609 8.71071 39.4696 8.5 40 8.5C40.5304 8.5 41.0391 8.71071 41.4142 9.08579C41.7893 9.46086 42 9.96957 42 10.5V12.5H52V10.5C52 9.96957 52.2107 9.46086 52.5858 9.08579C52.9609 8.71071 53.4696 8.5 54 8.5C54.5304 8.5 55.0391 8.71071 55.4142 9.08579C55.7893 9.46086 56 9.96957 56 10.5V12.5H58C59.5913 12.5 61.1174 13.1321 62.2426 14.2574C63.3679 15.3826 64 16.9087 64 18.5V37.428C62.696 37.988 61.472 38.796 60.408 39.864L60 40.272V18.5C60 17.9696 59.7893 17.4609 59.4142 17.0858C59.0391 16.7107 58.5304 16.5 58 16.5H22C21.4696 16.5 20.9609 16.7107 20.5858 17.0858C20.2107 17.4609 20 17.9696 20 18.5V66.5C20 67.0304 20.2107 67.5391 20.5858 67.9142C20.9609 68.2893 21.4696 68.5 22 68.5H36.88L36.228 71.112C36.1141 71.5672 36.0418 72.0317 36.012 72.5H22C20.4087 72.5 18.8826 71.8679 17.7574 70.7426C16.6321 69.6174 16 68.0913 16 66.5V18.5C16 16.9087 16.6321 15.3826 17.7574 14.2574C18.8826 13.1321 20.4087 12.5 22 12.5H24V10.5ZM63.24 42.692L43.92 62.012C42.794 63.1375 41.9949 64.5477 41.608 66.092L40.108 72.084C39.9601 72.6799 39.9688 73.304 40.1333 73.8956C40.2979 74.4872 40.6126 75.0261 41.047 75.4601C41.4814 75.8941 42.0207 76.2084 42.6124 76.3723C43.2041 76.5363 43.8282 76.5445 44.424 76.396L50.416 74.9C51.9605 74.5137 53.3709 73.7145 54.496 72.588L73.816 53.268C75.2006 51.8613 75.973 49.9644 75.965 47.9906C75.957 46.0168 75.1691 44.1262 73.7732 42.7308C72.3773 41.3354 70.4864 40.5483 68.5126 40.541C66.5388 40.5338 64.6422 41.3069 63.236 42.692H63.24Z" fill="black"/>
<path d="M86.667 48.832H106.667M86.667 48.832L92.5003 42.9987M86.667 48.832L92.5003 54.6654M91.667 32.1654H113.334M113.334 32.1654L107.5 26.332M113.334 32.1654L107.5 37.9987" stroke="black" stroke-width="3" stroke-linecap="round" stroke-linejoin="round"/>
<path d="M146.667 20.5013C146.667 16.9651 148.072 13.5737 150.572 11.0732C153.073 8.57273 156.464 7.16797 160 7.16797C163.537 7.16797 166.928 8.57273 169.428 11.0732C171.929 13.5737 173.334 16.9651 173.334 20.5013V40.5013C173.334 44.0375 171.929 47.4289 169.428 49.9294C166.928 52.4299 163.537 53.8346 160 53.8346C156.464 53.8346 153.073 52.4299 150.572 49.9294C148.072 47.4289 146.667 44.0375 146.667 40.5013V20.5013ZM160 11.3346C157.569 11.3346 155.238 12.3004 153.519 14.0195C151.799 15.7386 150.834 18.0702 150.834 20.5013V40.5013C150.834 42.9325 151.799 45.264 153.519 46.9831C155.238 48.7022 157.569 49.668 160 49.668C162.431 49.668 164.763 48.7022 166.482 46.9831C168.201 45.264 169.167 42.9325 169.167 40.5013V20.5013C169.167 18.0702 168.201 15.7386 166.482 14.0195C164.763 12.3004 162.431 11.3346 160 11.3346ZM161.667 63.3596C173.775 62.5046 183.334 52.4096 183.334 40.0846C183.334 39.5321 183.114 39.0022 182.723 38.6115C182.333 38.2208 181.803 38.0013 181.25 38.0013C180.698 38.0013 180.168 38.2208 179.777 38.6115C179.386 39.0022 179.167 39.5321 179.167 40.0846C179.167 50.6696 170.585 59.2513 160 59.2513C149.415 59.2513 140.834 50.6696 140.834 40.0846C140.834 39.5321 140.614 39.0022 140.223 38.6115C139.833 38.2208 139.303 38.0013 138.75 38.0013C138.198 38.0013 137.668 38.2208 137.277 38.6115C136.886 39.0022 136.667 39.5321 136.667 40.0846C136.667 52.1263 145.789 62.038 157.5 63.2846V71.7513C157.5 72.3038 157.72 72.8337 158.111 73.2244C158.501 73.6152 159.031 73.8346 159.584 73.8346C160.136 73.8346 160.666 73.6152 161.057 73.2244C161.448 72.8337 161.667 72.3038 161.667 71.7513V63.3596Z" fill="black"/>
</svg>
