<svg width="180" height="71" viewBox="0 0 180 71" fill="none" xmlns="http://www.w3.org/2000/svg">
<path d="M23.333 17.9987C23.333 14.9045 24.5622 11.937 26.7501 9.74912C28.938 7.56119 31.9055 6.33203 34.9997 6.33203C38.0939 6.33203 41.0613 7.56119 43.2493 9.74912C45.4372 11.937 46.6663 14.9045 46.6663 17.9987V35.4987C46.6663 38.5929 45.4372 41.5604 43.2493 43.7483C41.0613 45.9362 38.0939 47.1654 34.9997 47.1654C31.9055 47.1654 28.938 45.9362 26.7501 43.7483C24.5622 41.5604 23.333 38.5929 23.333 35.4987V17.9987ZM34.9997 9.97786C32.8724 9.97786 30.8323 10.8229 29.3281 12.3271C27.8239 13.8313 26.9788 15.8714 26.9788 17.9987V35.4987C26.9788 37.626 27.8239 39.6661 29.3281 41.1703C30.8323 42.6745 32.8724 43.5195 34.9997 43.5195C37.1269 43.5195 39.1671 42.6745 40.6713 41.1703C42.1755 39.6661 43.0205 37.626 43.0205 35.4987V17.9987C43.0205 15.8714 42.1755 13.8313 40.6713 12.3271C39.1671 10.8229 37.1269 9.97786 34.9997 9.97786ZM36.458 55.4997C47.0528 54.7516 55.4163 45.9185 55.4163 35.1341C55.4163 34.6506 55.2243 34.187 54.8824 33.8451C54.5406 33.5033 54.0769 33.3112 53.5934 33.3112C53.11 33.3112 52.6463 33.5033 52.3044 33.8451C51.9626 34.187 51.7705 34.6506 51.7705 35.1341C51.7705 44.396 44.2615 51.9049 34.9997 51.9049C25.7378 51.9049 18.2288 44.396 18.2288 35.1341C18.2288 34.6506 18.0368 34.187 17.6949 33.8451C17.3531 33.5033 16.8894 33.3112 16.4059 33.3112C15.9225 33.3112 15.4588 33.5033 15.1169 33.8451C14.7751 34.187 14.583 34.6506 14.583 35.1341C14.583 45.6706 22.5645 54.3433 32.8122 55.4341V62.8424C32.8122 63.3259 33.0042 63.7896 33.3461 64.1314C33.688 64.4733 34.1516 64.6654 34.6351 64.6654C35.1186 64.6654 35.5822 64.4733 35.9241 64.1314C36.266 63.7896 36.458 63.3259 36.458 62.8424V55.4997Z" fill="black"/>
<path d="M76.667 43.832H96.667M76.667 43.832L82.5003 37.9987M76.667 43.832L82.5003 49.6654M81.667 27.1654H103.334M103.334 27.1654L97.5003 21.332M103.334 27.1654L97.5003 32.9987" stroke="black" stroke-width="3" stroke-linecap="round" stroke-linejoin="round"/>
<path d="M133.333 17.9987C133.333 14.9045 134.562 11.937 136.75 9.74912C138.938 7.56119 141.905 6.33203 145 6.33203C148.094 6.33203 151.061 7.56119 153.249 9.74912C155.437 11.937 156.666 14.9045 156.666 17.9987V35.4987C156.666 38.5929 155.437 41.5604 153.249 43.7483C151.061 45.9362 148.094 47.1654 145 47.1654C141.905 47.1654 138.938 45.9362 136.75 43.7483C134.562 41.5604 133.333 38.5929 133.333 35.4987V17.9987ZM145 9.97786C142.872 9.97786 140.832 10.8229 139.328 12.3271C137.824 13.8313 136.979 15.8714 136.979 17.9987V35.4987C136.979 37.626 137.824 39.6661 139.328 41.1703C140.832 42.6745 142.872 43.5195 145 43.5195C147.127 43.5195 149.167 42.6745 150.671 41.1703C152.175 39.6661 153.021 37.626 153.021 35.4987V17.9987C153.021 15.8714 152.175 13.8313 150.671 12.3271C149.167 10.8229 147.127 9.97786 145 9.97786ZM146.458 55.4997C157.053 54.7516 165.416 45.9185 165.416 35.1341C165.416 34.6506 165.224 34.187 164.882 33.8451C164.541 33.5033 164.077 33.3112 163.593 33.3112C163.11 33.3112 162.646 33.5033 162.304 33.8451C161.963 34.187 161.771 34.6506 161.771 35.1341C161.771 44.396 154.262 51.9049 145 51.9049C135.738 51.9049 128.229 44.396 128.229 35.1341C128.229 34.6506 128.037 34.187 127.695 33.8451C127.353 33.5033 126.889 33.3112 126.406 33.3112C125.922 33.3112 125.459 33.5033 125.117 33.8451C124.775 34.187 124.583 34.6506 124.583 35.1341C124.583 45.6706 132.564 54.3433 142.812 55.4341V62.8424C142.812 63.3259 143.004 63.7896 143.346 64.1314C143.688 64.4733 144.152 64.6654 144.635 64.6654C145.119 64.6654 145.582 64.4733 145.924 64.1314C146.266 63.7896 146.458 63.3259 146.458 62.8424V55.4997Z" fill="black"/>
</svg>
