<svg width="122" height="12" viewBox="0 0 122 12" fill="none" xmlns="http://www.w3.org/2000/svg">
<g clip-path="url(#clip0_967_27097)">
<path d="M10.4938 5.45162H10.8691V6.30971H10.4938V5.45162ZM9.75419 6.56095H10.1295V5.20038H9.75419V6.56095ZM9.02698 7.26469H9.40232V4.49664H9.02698V7.26469ZM8.33568 7.80773H8.71101V3.97893H8.33568V7.8068V7.80773ZM7.59559 6.8727H7.97092V4.88862H7.59559V6.8727ZM6.84376 8.37401H7.2191V3.30241H6.84258V8.37401H6.84376ZM6.10391 9.10117H6.47924V2.66016H6.10391V9.10117ZM5.3767 8.10679H5.75204V3.65452H5.3767V8.10681V8.10679ZM4.62441 6.84243H4.99974V4.96577H4.62441V6.84243ZM3.89722 6.39506H4.27256V5.36461H3.89722V6.39676V6.39506ZM3.17002 6.94635H3.54535V4.81424H3.17002V6.94704V6.94635ZM2.45455 7.97846H2.82988V3.66086H2.45457V7.97921L2.45455 7.97846ZM1.72737 7.31885H2.1027V4.4054H1.72737V7.31958V7.31885ZM0.986328 6.56095H1.36166V5.20038H0.986328V6.56095Z" fill="black"/>
</g>
<g clip-path="url(#clip1_967_27097)">
<path d="M21.4938 5.45162H21.8691V6.30971H21.4938V5.45162ZM20.7542 6.56095H21.1295V5.20038H20.7542V6.56095ZM20.027 7.26469H20.4023V4.49664H20.027V7.26469ZM19.3357 7.80773H19.711V3.97893H19.3357V7.8068V7.80773ZM18.5956 6.8727H18.9709V4.88862H18.5956V6.8727ZM17.8438 8.37401H18.2191V3.30241H17.8426V8.37401H17.8438ZM17.1039 9.10117H17.4792V2.66016H17.1039V9.10117ZM16.3767 8.10679H16.752V3.65452H16.3767V8.10681V8.10679ZM15.6244 6.84243H15.9997V4.96577H15.6244V6.84243ZM14.8972 6.39506H15.2726V5.36461H14.8972V6.39676V6.39506ZM14.17 6.94635H14.5454V4.81424H14.17V6.94704V6.94635ZM13.4545 7.97846H13.8299V3.66086H13.4546V7.97921L13.4545 7.97846ZM12.7274 7.31885H13.1027V4.4054H12.7274V7.31958V7.31885ZM11.9863 6.56095H12.3617V5.20038H11.9863V6.56095Z" fill="black"/>
</g>
<g clip-path="url(#clip2_967_27097)">
<path d="M32.4938 5.45162H32.8691V6.30971H32.4938V5.45162ZM31.7542 6.56095H32.1295V5.20038H31.7542V6.56095ZM31.027 7.26469H31.4023V4.49664H31.027V7.26469ZM30.3357 7.80773H30.711V3.97893H30.3357V7.8068V7.80773ZM29.5956 6.8727H29.9709V4.88862H29.5956V6.8727ZM28.8438 8.37401H29.2191V3.30241H28.8426V8.37401H28.8438ZM28.1039 9.10117H28.4792V2.66016H28.1039V9.10117ZM27.3767 8.10679H27.752V3.65452H27.3767V8.10681V8.10679ZM26.6244 6.84243H26.9997V4.96577H26.6244V6.84243ZM25.8972 6.39506H26.2726V5.36461H25.8972V6.39676V6.39506ZM25.17 6.94635H25.5454V4.81424H25.17V6.94704V6.94635ZM24.4545 7.97846H24.8299V3.66086H24.4546V7.97921L24.4545 7.97846ZM23.7274 7.31885H24.1027V4.4054H23.7274V7.31958V7.31885ZM22.9863 6.56095H23.3617V5.20038H22.9863V6.56095Z" fill="black"/>
</g>
<g clip-path="url(#clip3_967_27097)">
<path d="M43.4938 5.45162H43.8691V6.30971H43.4938V5.45162ZM42.7542 6.56095H43.1295V5.20038H42.7542V6.56095ZM42.027 7.26469H42.4023V4.49664H42.027V7.26469ZM41.3357 7.80773H41.711V3.97893H41.3357V7.8068V7.80773ZM40.5956 6.8727H40.9709V4.88862H40.5956V6.8727ZM39.8438 8.37401H40.2191V3.30241H39.8426V8.37401H39.8438ZM39.1039 9.10117H39.4792V2.66016H39.1039V9.10117ZM38.3767 8.10679H38.752V3.65452H38.3767V8.10681V8.10679ZM37.6244 6.84243H37.9997V4.96577H37.6244V6.84243ZM36.8972 6.39506H37.2726V5.36461H36.8972V6.39676V6.39506ZM36.17 6.94635H36.5454V4.81424H36.17V6.94704V6.94635ZM35.4545 7.97846H35.8299V3.66086H35.4546V7.97921L35.4545 7.97846ZM34.7274 7.31885H35.1027V4.4054H34.7274V7.31958V7.31885ZM33.9863 6.56095H34.3617V5.20038H33.9863V6.56095Z" fill="black"/>
</g>
<g clip-path="url(#clip4_967_27097)">
<path d="M54.4938 5.45162H54.8691V6.30971H54.4938V5.45162ZM53.7542 6.56095H54.1295V5.20038H53.7542V6.56095ZM53.027 7.26469H53.4023V4.49664H53.027V7.26469ZM52.3357 7.80773H52.711V3.97893H52.3357V7.8068V7.80773ZM51.5956 6.8727H51.9709V4.88862H51.5956V6.8727ZM50.8438 8.37401H51.2191V3.30241H50.8426V8.37401H50.8438ZM50.1039 9.10117H50.4792V2.66016H50.1039V9.10117ZM49.3767 8.10679H49.752V3.65452H49.3767V8.10681V8.10679ZM48.6244 6.84243H48.9997V4.96577H48.6244V6.84243ZM47.8972 6.39506H48.2726V5.36461H47.8972V6.39676V6.39506ZM47.17 6.94635H47.5454V4.81424H47.17V6.94704V6.94635ZM46.4545 7.97846H46.8299V3.66086H46.4546V7.97921L46.4545 7.97846ZM45.7274 7.31885H46.1027V4.4054H45.7274V7.31958V7.31885ZM44.9863 6.56095H45.3617V5.20038H44.9863V6.56095Z" fill="black"/>
</g>
<g clip-path="url(#clip5_967_27097)">
<path d="M65.4938 5.45162H65.8691V6.30971H65.4938V5.45162ZM64.7542 6.56095H65.1295V5.20038H64.7542V6.56095ZM64.027 7.26469H64.4023V4.49664H64.027V7.26469ZM63.3357 7.80773H63.711V3.97893H63.3357V7.8068V7.80773ZM62.5956 6.8727H62.9709V4.88862H62.5956V6.8727ZM61.8438 8.37401H62.2191V3.30241H61.8426V8.37401H61.8438ZM61.1039 9.10117H61.4792V2.66016H61.1039V9.10117ZM60.3767 8.10679H60.752V3.65452H60.3767V8.10681V8.10679ZM59.6244 6.84243H59.9997V4.96577H59.6244V6.84243ZM58.8972 6.39506H59.2726V5.36461H58.8972V6.39676V6.39506ZM58.17 6.94635H58.5454V4.81424H58.17V6.94704V6.94635ZM57.4545 7.97846H57.8299V3.66086H57.4546V7.97921L57.4545 7.97846ZM56.7274 7.31885H57.1027V4.4054H56.7274V7.31958V7.31885ZM55.9863 6.56095H56.3617V5.20038H55.9863V6.56095Z" fill="black"/>
</g>
<g clip-path="url(#clip6_967_27097)">
<path d="M76.4938 5.45162H76.8691V6.30971H76.4938V5.45162ZM75.7542 6.56095H76.1295V5.20038H75.7542V6.56095ZM75.027 7.26469H75.4023V4.49664H75.027V7.26469ZM74.3357 7.80773H74.711V3.97893H74.3357V7.8068V7.80773ZM73.5956 6.8727H73.9709V4.88862H73.5956V6.8727ZM72.8438 8.37401H73.2191V3.30241H72.8426V8.37401H72.8438ZM72.1039 9.10117H72.4792V2.66016H72.1039V9.10117ZM71.3767 8.10679H71.752V3.65452H71.3767V8.10681V8.10679ZM70.6244 6.84243H70.9997V4.96577H70.6244V6.84243ZM69.8972 6.39506H70.2726V5.36461H69.8972V6.39676V6.39506ZM69.17 6.94635H69.5454V4.81424H69.17V6.94704V6.94635ZM68.4545 7.97846H68.8299V3.66086H68.4546V7.97921L68.4545 7.97846ZM67.7274 7.31885H68.1027V4.4054H67.7274V7.31958V7.31885ZM66.9863 6.56095H67.3617V5.20038H66.9863V6.56095Z" fill="black"/>
</g>
<g clip-path="url(#clip7_967_27097)">
<path d="M87.4938 5.45162H87.8691V6.30971H87.4938V5.45162ZM86.7542 6.56095H87.1295V5.20038H86.7542V6.56095ZM86.027 7.26469H86.4023V4.49664H86.027V7.26469ZM85.3357 7.80773H85.711V3.97893H85.3357V7.8068V7.80773ZM84.5956 6.8727H84.9709V4.88862H84.5956V6.8727ZM83.8438 8.37401H84.2191V3.30241H83.8426V8.37401H83.8438ZM83.1039 9.10117H83.4792V2.66016H83.1039V9.10117ZM82.3767 8.10679H82.752V3.65452H82.3767V8.10681V8.10679ZM81.6244 6.84243H81.9997V4.96577H81.6244V6.84243ZM80.8972 6.39506H81.2726V5.36461H80.8972V6.39676V6.39506ZM80.17 6.94635H80.5454V4.81424H80.17V6.94704V6.94635ZM79.4545 7.97846H79.8299V3.66086H79.4546V7.97921L79.4545 7.97846ZM78.7274 7.31885H79.1027V4.4054H78.7274V7.31958V7.31885ZM77.9863 6.56095H78.3617V5.20038H77.9863V6.56095Z" fill="black"/>
</g>
<g clip-path="url(#clip8_967_27097)">
<path d="M98.4938 5.45162H98.8691V6.30971H98.4938V5.45162ZM97.7542 6.56095H98.1295V5.20038H97.7542V6.56095ZM97.027 7.26469H97.4023V4.49664H97.027V7.26469ZM96.3357 7.80773H96.711V3.97893H96.3357V7.8068V7.80773ZM95.5956 6.8727H95.9709V4.88862H95.5956V6.8727ZM94.8438 8.37401H95.2191V3.30241H94.8426V8.37401H94.8438ZM94.1039 9.10117H94.4792V2.66016H94.1039V9.10117ZM93.3767 8.10679H93.752V3.65452H93.3767V8.10681V8.10679ZM92.6244 6.84243H92.9997V4.96577H92.6244V6.84243ZM91.8972 6.39506H92.2726V5.36461H91.8972V6.39676V6.39506ZM91.17 6.94635H91.5454V4.81424H91.17V6.94704V6.94635ZM90.4545 7.97846H90.8299V3.66086H90.4546V7.97921L90.4545 7.97846ZM89.7274 7.31885H90.1027V4.4054H89.7274V7.31958V7.31885ZM88.9863 6.56095H89.3617V5.20038H88.9863V6.56095Z" fill="black"/>
</g>
<g clip-path="url(#clip9_967_27097)">
<path d="M109.494 5.45162H109.869V6.30971H109.494V5.45162ZM108.754 6.56095H109.13V5.20038H108.754V6.56095ZM108.027 7.26469H108.402V4.49664H108.027V7.26469ZM107.336 7.80773H107.711V3.97893H107.336V7.8068V7.80773ZM106.596 6.8727H106.971V4.88862H106.596V6.8727ZM105.844 8.37401H106.219V3.30241H105.843V8.37401H105.844ZM105.104 9.10117H105.479V2.66016H105.104V9.10117ZM104.377 8.10679H104.752V3.65452H104.377V8.10681V8.10679ZM103.624 6.84243H104V4.96577H103.624V6.84243ZM102.897 6.39506H103.273V5.36461H102.897V6.39676V6.39506ZM102.17 6.94635H102.545V4.81424H102.17V6.94704V6.94635ZM101.455 7.97846H101.83V3.66086H101.455V7.97921L101.455 7.97846ZM100.727 7.31885H101.103V4.4054H100.727V7.31958V7.31885ZM99.9863 6.56095H100.362V5.20038H99.9863V6.56095Z" fill="black"/>
</g>
<g clip-path="url(#clip10_967_27097)">
<path d="M120.494 5.45162H120.869V6.30971H120.494V5.45162ZM119.754 6.56095H120.13V5.20038H119.754V6.56095ZM119.027 7.26469H119.402V4.49664H119.027V7.26469ZM118.336 7.80773H118.711V3.97893H118.336V7.8068V7.80773ZM117.596 6.8727H117.971V4.88862H117.596V6.8727ZM116.844 8.37401H117.219V3.30241H116.843V8.37401H116.844ZM116.104 9.10117H116.479V2.66016H116.104V9.10117ZM115.377 8.10679H115.752V3.65452H115.377V8.10681V8.10679ZM114.624 6.84243H115V4.96577H114.624V6.84243ZM113.897 6.39506H114.273V5.36461H113.897V6.39676V6.39506ZM113.17 6.94635H113.545V4.81424H113.17V6.94704V6.94635ZM112.455 7.97846H112.83V3.66086H112.455V7.97921L112.455 7.97846ZM111.727 7.31885H112.103V4.4054H111.727V7.31958V7.31885ZM110.986 6.56095H111.362V5.20038H110.986V6.56095Z" fill="black"/>
</g>
<defs>
<clipPath id="clip0_967_27097">
<rect width="11" height="11" fill="white" transform="translate(0.427734 0.378906)"/>
</clipPath>
<clipPath id="clip1_967_27097">
<rect width="11" height="11" fill="white" transform="translate(11.4277 0.378906)"/>
</clipPath>
<clipPath id="clip2_967_27097">
<rect width="11" height="11" fill="white" transform="translate(22.4277 0.378906)"/>
</clipPath>
<clipPath id="clip3_967_27097">
<rect width="11" height="11" fill="white" transform="translate(33.4277 0.378906)"/>
</clipPath>
<clipPath id="clip4_967_27097">
<rect width="11" height="11" fill="white" transform="translate(44.4277 0.378906)"/>
</clipPath>
<clipPath id="clip5_967_27097">
<rect width="11" height="11" fill="white" transform="translate(55.4277 0.378906)"/>
</clipPath>
<clipPath id="clip6_967_27097">
<rect width="11" height="11" fill="white" transform="translate(66.4277 0.378906)"/>
</clipPath>
<clipPath id="clip7_967_27097">
<rect width="11" height="11" fill="white" transform="translate(77.4277 0.378906)"/>
</clipPath>
<clipPath id="clip8_967_27097">
<rect width="11" height="11" fill="white" transform="translate(88.4277 0.378906)"/>
</clipPath>
<clipPath id="clip9_967_27097">
<rect width="11" height="11" fill="white" transform="translate(99.4277 0.378906)"/>
</clipPath>
<clipPath id="clip10_967_27097">
<rect width="11" height="11" fill="white" transform="translate(110.428 0.378906)"/>
</clipPath>
</defs>
</svg>
